<?xml version="1.0" standalone="no"?>
<!DOCTYPE svg PUBLIC "-//W3C//DTD SVG 20010904//EN"
 "http://www.w3.org/TR/2001/REC-SVG-20010904/DTD/svg10.dtd">
<svg version="1.0" xmlns="http://www.w3.org/2000/svg"
 width="200.000000pt" height="200.000000pt" viewBox="0 0 200.000000 200.000000"
 preserveAspectRatio="xMidYMid meet">
<metadata>
Created by potrace 1.14, written by Peter Selinger 2001-2017
</metadata>
<g transform="translate(0.000000,200.000000) scale(0.100000,-0.100000)"
fill="#000000" stroke="none">
<path d="M944 1570 c-31 -20 -50 -51 -59 -98 -2 -14 0 -22 7 -20 6 2 13 15 15
28 12 82 108 118 172 64 39 -33 50 -83 27 -131 -9 -20 -14 -38 -10 -42 4 -3 9
-1 11 5 2 6 11 20 19 30 13 16 13 14 -1 -13 -8 -18 -22 -33 -30 -33 -19 0 -19
18 0 50 21 37 18 42 -13 26 -49 -26 -66 -81 -46 -148 9 -32 64 -62 110 -61 30
1 48 -5 60 -18 9 -10 25 -19 36 -19 11 0 18 -7 18 -20 0 -13 7 -20 20 -20 13
0 20 -7 20 -20 0 -13 6 -20 14 -18 8 2 15 -1 16 -7 3 -22 24 -35 48 -32 19 3
26 10 29 32 4 24 -7 40 -77 110 -62 62 -81 88 -79 106 4 49 -2 68 -32 98 -29
30 -69 42 -69 21 0 -5 -4 -10 -8 -10 -5 0 -7 13 -4 29 13 93 -111 164 -194
111z"/>
<path d="M726 1415 c13 -19 8 -26 -60 -94 l-74 -74 36 -39 36 -39 48 48 c47
46 48 46 68 28 l21 -19 -48 -48 -47 -48 37 -36 37 -36 77 77 c67 67 78 75 88
61 21 -28 25 -18 25 57 0 71 -1 72 -35 95 -34 22 -45 45 -25 57 5 3 21 -2 36
-11 l26 -17 -4 29 -3 28 -126 1 c-126 1 -127 1 -113 -20z"/>
<path d="M921 1373 c12 -14 68 -43 84 -43 16 0 1 21 -20 26 -13 3 -29 12 -36
20 -6 8 -18 14 -26 14 -13 0 -13 -2 -2 -17z"/>
<path d="M850 1030 c-7 -4 -10 -16 -8 -26 5 -28 52 -26 56 2 3 23 -26 38 -48
24z"/>
<path d="M1315 1031 c-3 -2 -5 -19 -5 -38 0 -24 -4 -33 -17 -34 -39 -1 -57 -9
-81 -33 -21 -20 -25 -35 -25 -75 0 -56 18 -86 58 -94 14 -2 34 2 45 10 13 9
20 10 20 3 0 -6 10 -10 23 -8 21 3 22 7 25 138 2 132 2 136 -18 136 -12 0 -23
-2 -25 -5z m-5 -154 c0 -52 -41 -93 -62 -62 -12 16 -9 70 4 83 7 7 22 12 35
12 19 0 23 -5 23 -33z"/>
<path d="M631 884 l1 -125 27 3 c24 3 26 7 26 51 l0 47 42 0 c39 0 43 2 41 24
-2 19 -8 23 -33 23 -40 -1 -54 9 -48 33 6 21 11 23 57 20 30 -2 48 14 39 37
-4 9 -27 13 -79 13 l-75 0 2 -126z"/>
<path d="M820 952 c-18 -6 -11 -42 9 -42 15 0 18 -8 17 -50 0 -42 -3 -50 -19
-50 -13 0 -18 -6 -15 -22 3 -20 10 -23 61 -26 55 -3 57 -2 57 23 0 16 -6 25
-15 25 -12 0 -15 15 -15 73 l0 72 -35 0 c-19 0 -39 -1 -45 -3z"/>
<path d="M979 953 c-12 -3 -15 -19 -13 -91 1 -48 2 -90 3 -94 1 -5 12 -8 26
-8 24 0 25 2 25 63 0 65 11 87 41 87 26 0 31 -15 32 -85 1 -62 1 -63 26 -62
24 2 25 5 28 75 3 66 1 75 -22 98 -28 28 -61 31 -87 7 -10 -9 -18 -11 -18 -6
0 13 -19 21 -41 16z"/>
<path d="M474 540 c-1 -66 2 -121 5 -121 48 -11 51 -8 51 47 l0 54 49 0 50 0
3 -52 c3 -49 5 -53 28 -53 l25 1 3 122 3 122 -31 0 c-29 0 -30 -1 -30 -47 l0
-48 -50 0 -50 0 0 48 c0 45 -1 47 -28 47 l-28 0 0 -120z"/>
<path d="M759 581 c-62 -62 -20 -171 66 -171 73 0 117 81 84 153 -24 54 -105
63 -150 18z m106 -51 c9 -27 -2 -58 -25 -70 -15 -8 -24 -6 -40 10 -11 11 -20
29 -20 40 0 11 9 29 20 40 24 24 54 14 65 -20z"/>
<path d="M965 601 c-3 -2 -5 -37 -5 -78 0 -60 4 -77 20 -93 21 -21 55 -26 80
-11 8 6 19 7 25 3 5 -3 20 -7 31 -8 21 -1 22 3 20 95 -1 95 -1 96 -26 96 -24
0 -25 -3 -26 -64 -1 -65 -10 -81 -46 -81 -19 0 -20 5 -24 80 -1 25 -2 50 -3
57 -1 11 -36 14 -46 4z"/>
<path d="M1195 588 c-23 -20 -25 -26 -16 -51 7 -17 24 -34 45 -42 19 -8 37
-19 41 -25 10 -16 -26 -24 -57 -12 -28 10 -29 10 -26 -16 3 -25 7 -27 50 -30
93 -6 122 74 41 113 -50 24 -50 40 1 39 32 -1 37 1 34 20 -5 32 -76 35 -113 4z"/>
<path d="M1375 585 c-20 -21 -25 -36 -25 -73 0 -26 6 -54 13 -63 40 -52 164
-52 150 0 -4 16 -10 18 -33 11 -30 -9 -76 8 -69 25 2 6 24 10 49 11 74 2 72 1
65 37 -16 76 -97 104 -150 52z m79 -21 c29 -11 18 -31 -16 -29 -43 4 -42 3
-28 20 14 17 21 18 44 9z"/>
</g>
</svg>
